<mxfile host="65bd71144e">
    <diagram id="a__SGPqRtPCptUaD6PLc" name="Page-1">
        <mxGraphModel dx="879" dy="660" grid="0" gridSize="10" guides="1" tooltips="1" connect="1" arrows="1" fold="1" page="1" pageScale="1" pageWidth="850" pageHeight="1100" math="0" shadow="0">
            <root>
                <mxCell id="0"/>
                <mxCell id="1" parent="0"/>
                <mxCell id="HLV6T8kUYTbcpwWSFZt4-93" value="" style="whiteSpace=wrap;html=1;aspect=fixed;fillColor=none;" vertex="1" parent="1">
                    <mxGeometry x="120" y="200" width="400" height="400" as="geometry"/>
                </mxCell>
                <mxCell id="HLV6T8kUYTbcpwWSFZt4-81" value="" style="ellipse;whiteSpace=wrap;html=1;aspect=fixed;fillColor=#FFFFFF;" vertex="1" parent="1">
                    <mxGeometry x="238" y="418" width="4" height="4" as="geometry"/>
                </mxCell>
                <mxCell id="HLV6T8kUYTbcpwWSFZt4-84" value="A(60, 50)" style="text;html=1;align=center;verticalAlign=middle;resizable=0;points=[];autosize=1;strokeColor=none;fillColor=none;" vertex="1" parent="1">
                    <mxGeometry x="357" y="385" width="70" height="30" as="geometry"/>
                </mxCell>
                <mxCell id="HLV6T8kUYTbcpwWSFZt4-86" value="" style="ellipse;whiteSpace=wrap;html=1;aspect=fixed;fillColor=#FFFFFF;" vertex="1" parent="1">
                    <mxGeometry x="358" y="398" width="4" height="4" as="geometry"/>
                </mxCell>
                <mxCell id="HLV6T8kUYTbcpwWSFZt4-90" value="" style="ellipse;whiteSpace=wrap;html=1;aspect=fixed;fillColor=#FFFFFF;" vertex="1" parent="1">
                    <mxGeometry x="418" y="358" width="4" height="4" as="geometry"/>
                </mxCell>
                <mxCell id="HLV6T8kUYTbcpwWSFZt4-91" value="" style="ellipse;whiteSpace=wrap;html=1;aspect=fixed;fillColor=#FFFFFF;" vertex="1" parent="1">
                    <mxGeometry x="298" y="378" width="4" height="4" as="geometry"/>
                </mxCell>
                <mxCell id="HLV6T8kUYTbcpwWSFZt4-92" value="" style="ellipse;whiteSpace=wrap;html=1;aspect=fixed;fillColor=#FFFFFF;" vertex="1" parent="1">
                    <mxGeometry x="438" y="318" width="4" height="4" as="geometry"/>
                </mxCell>
                <mxCell id="HLV6T8kUYTbcpwWSFZt4-94" value="" style="ellipse;whiteSpace=wrap;html=1;aspect=fixed;fillColor=#FFFFFF;" vertex="1" parent="1">
                    <mxGeometry x="158" y="478" width="4" height="4" as="geometry"/>
                </mxCell>
                <mxCell id="HLV6T8kUYTbcpwWSFZt4-95" value="" style="ellipse;whiteSpace=wrap;html=1;aspect=fixed;fillColor=#FFFFFF;" vertex="1" parent="1">
                    <mxGeometry x="458" y="438" width="4" height="4" as="geometry"/>
                </mxCell>
                <mxCell id="HLV6T8kUYTbcpwWSFZt4-97" value="" style="endArrow=none;html=1;" edge="1" parent="1">
                    <mxGeometry width="50" height="50" relative="1" as="geometry">
                        <mxPoint x="360" y="600" as="sourcePoint"/>
                        <mxPoint x="360" y="200" as="targetPoint"/>
                    </mxGeometry>
                </mxCell>
                <mxCell id="HLV6T8kUYTbcpwWSFZt4-98" value="" style="endArrow=none;html=1;" edge="1" parent="1">
                    <mxGeometry width="50" height="50" relative="1" as="geometry">
                        <mxPoint x="120" y="420" as="sourcePoint"/>
                        <mxPoint x="360" y="420" as="targetPoint"/>
                    </mxGeometry>
                </mxCell>
                <mxCell id="HLV6T8kUYTbcpwWSFZt4-99" value="" style="endArrow=none;html=1;" edge="1" parent="1">
                    <mxGeometry width="50" height="50" relative="1" as="geometry">
                        <mxPoint x="160" y="420" as="sourcePoint"/>
                        <mxPoint x="160" y="600" as="targetPoint"/>
                    </mxGeometry>
                </mxCell>
                <mxCell id="HLV6T8kUYTbcpwWSFZt4-100" value="" style="endArrow=none;html=1;" edge="1" parent="1">
                    <mxGeometry width="50" height="50" relative="1" as="geometry">
                        <mxPoint x="300" y="200" as="sourcePoint"/>
                        <mxPoint x="300" y="420" as="targetPoint"/>
                    </mxGeometry>
                </mxCell>
                <mxCell id="HLV6T8kUYTbcpwWSFZt4-101" value="" style="endArrow=none;html=1;" edge="1" parent="1">
                    <mxGeometry width="50" height="50" relative="1" as="geometry">
                        <mxPoint x="360" y="360" as="sourcePoint"/>
                        <mxPoint x="520" y="360" as="targetPoint"/>
                    </mxGeometry>
                </mxCell>
                <mxCell id="HLV6T8kUYTbcpwWSFZt4-102" value="" style="endArrow=none;html=1;exitX=0.5;exitY=0;exitDx=0;exitDy=0;" edge="1" parent="1">
                    <mxGeometry width="50" height="50" relative="1" as="geometry">
                        <mxPoint x="439.88" y="200" as="sourcePoint"/>
                        <mxPoint x="440" y="360" as="targetPoint"/>
                    </mxGeometry>
                </mxCell>
                <mxCell id="HLV6T8kUYTbcpwWSFZt4-103" value="" style="endArrow=none;html=1;exitX=0.5;exitY=0;exitDx=0;exitDy=0;" edge="1" parent="1">
                    <mxGeometry width="50" height="50" relative="1" as="geometry">
                        <mxPoint x="459.88" y="360" as="sourcePoint"/>
                        <mxPoint x="460" y="600" as="targetPoint"/>
                    </mxGeometry>
                </mxCell>
                <mxCell id="HLV6T8kUYTbcpwWSFZt4-104" value="B(30, 45)" style="text;html=1;align=center;verticalAlign=middle;resizable=0;points=[];autosize=1;strokeColor=none;fillColor=none;" vertex="1" parent="1">
                    <mxGeometry x="200" y="418" width="70" height="30" as="geometry"/>
                </mxCell>
                <mxCell id="HLV6T8kUYTbcpwWSFZt4-105" value="C(75, 60)" style="text;html=1;align=center;verticalAlign=middle;resizable=0;points=[];autosize=1;strokeColor=none;fillColor=none;" vertex="1" parent="1">
                    <mxGeometry x="368" y="332" width="70" height="30" as="geometry"/>
                </mxCell>
                <mxCell id="HLV6T8kUYTbcpwWSFZt4-108" value="D(10, 30)" style="text;html=1;align=center;verticalAlign=middle;resizable=0;points=[];autosize=1;strokeColor=none;fillColor=none;" vertex="1" parent="1">
                    <mxGeometry x="158" y="465" width="70" height="30" as="geometry"/>
                </mxCell>
                <mxCell id="HLV6T8kUYTbcpwWSFZt4-109" value="E(45, 55)" style="text;html=1;align=center;verticalAlign=middle;resizable=0;points=[];autosize=1;strokeColor=none;fillColor=none;" vertex="1" parent="1">
                    <mxGeometry x="232" y="365" width="70" height="30" as="geometry"/>
                </mxCell>
                <mxCell id="HLV6T8kUYTbcpwWSFZt4-110" value="F(85, 40)" style="text;html=1;align=center;verticalAlign=middle;resizable=0;points=[];autosize=1;strokeColor=none;fillColor=none;" vertex="1" parent="1">
                    <mxGeometry x="394" y="437" width="67" height="26" as="geometry"/>
                </mxCell>
                <mxCell id="HLV6T8kUYTbcpwWSFZt4-111" value="G(80, 70)" style="text;html=1;align=center;verticalAlign=middle;resizable=0;points=[];autosize=1;strokeColor=none;fillColor=none;" vertex="1" parent="1">
                    <mxGeometry x="439" y="304" width="69" height="26" as="geometry"/>
                </mxCell>
                <mxCell id="HLV6T8kUYTbcpwWSFZt4-114" value="" style="endArrow=classic;html=1;" edge="1" parent="1">
                    <mxGeometry width="50" height="50" relative="1" as="geometry">
                        <mxPoint x="80" y="600" as="sourcePoint"/>
                        <mxPoint x="560" y="600" as="targetPoint"/>
                    </mxGeometry>
                </mxCell>
                <mxCell id="HLV6T8kUYTbcpwWSFZt4-115" value="" style="endArrow=classic;html=1;" edge="1" parent="1">
                    <mxGeometry width="50" height="50" relative="1" as="geometry">
                        <mxPoint x="120" y="640" as="sourcePoint"/>
                        <mxPoint x="120" y="160" as="targetPoint"/>
                    </mxGeometry>
                </mxCell>
                <mxCell id="HLV6T8kUYTbcpwWSFZt4-116" value="y" style="text;html=1;align=center;verticalAlign=middle;resizable=0;points=[];autosize=1;strokeColor=none;fillColor=none;" vertex="1" parent="1">
                    <mxGeometry x="95" y="155" width="30" height="30" as="geometry"/>
                </mxCell>
                <mxCell id="HLV6T8kUYTbcpwWSFZt4-118" value="x" style="text;html=1;align=center;verticalAlign=middle;resizable=0;points=[];autosize=1;strokeColor=none;fillColor=none;" vertex="1" parent="1">
                    <mxGeometry x="535" y="595" width="30" height="30" as="geometry"/>
                </mxCell>
            </root>
        </mxGraphModel>
    </diagram>
</mxfile>